HIERARCHY
ROOT root
{
	OFFSET 0.00 0.00 0.00
	CHANNELS 6 Xposition Yposition Zposition Zrotation Xrotation Yrotation
	JOINT lowerback
	{
		OFFSET 0 0 0
		CHANNELS 6 Xposition Yposition Zposition Zrotation Xrotation Yrotation
		JOINT upperback
		{
			OFFSET -0.214371 12.3768 -1.12219
			CHANNELS 6 Xposition Yposition Zposition Zrotation Xrotation Yrotation
			JOINT thorax
			{
				OFFSET -0.00137213 12.3873 0.296195
				CHANNELS 6 Xposition Yposition Zposition Zrotation Xrotation Yrotation
				JOINT lowerneck
				{
					OFFSET 0.0883157 12.5016 0.82912
					CHANNELS 6 Xposition Yposition Zposition Zrotation Xrotation Yrotation
					JOINT upperneck
					{
						OFFSET -1 10.1794 0.943522
						CHANNELS 6 Xposition Yposition Zposition Zrotation Xrotation Yrotation
						JOINT head
						{
							OFFSET 0.667525 10.2797 -1.57149
							CHANNELS 6 Xposition Yposition Zposition Zrotation Xrotation Yrotation
							End Site
							{
								OFFSET 0 0 0
							}
						}
					}
				}
				JOINT lclavicle
				{
					OFFSET 0.0883157 12.5016 0.82912
					CHANNELS 6 Xposition Yposition Zposition Zrotation Xrotation Yrotation
					JOINT lhumerus
					{
						OFFSET 20.61 4.45006 1.43784
						CHANNELS 6 Xposition Yposition Zposition Zrotation Xrotation Yrotation
						JOINT lradius
						{
							OFFSET 0 -30.3438 0
							CHANNELS 6 Xposition Yposition Zposition Zrotation Xrotation Yrotation
							JOINT lwrist
							{
								OFFSET 0 -18.964 0
								CHANNELS 6 Xposition Yposition Zposition Zrotation Xrotation Yrotation
								JOINT lhand
								{
									OFFSET 0 -9.48199 0
									CHANNELS 6 Xposition Yposition Zposition Zrotation Xrotation Yrotation
									JOINT lfingers
									{
										OFFSET 0 -3.17138 0
										CHANNELS 6 Xposition Yposition Zposition Zrotation Xrotation Yrotation
										End Site
										{
											OFFSET 0 -2.55685 0
										}
									}
								}
								JOINT lthumb
								{
									OFFSET 0 -9.48199 0
									CHANNELS 6 Xposition Yposition Zposition Zrotation Xrotation Yrotation
									End Site
									{
										OFFSET 0 -3.67114 0
									}
								}
							}
						}
					}
				}
				JOINT rclavicle
				{
					OFFSET 0.0883157 12.5016 0.82912
					CHANNELS 6 Xposition Yposition Zposition Zrotation Xrotation Yrotation
					JOINT rhumerus
					{
						OFFSET -20.61 4.45 1.44
						CHANNELS 6 Xposition Yposition Zposition Zrotation Xrotation Yrotation
						JOINT rradius
						{
							OFFSET 0 -29.5102 0
							CHANNELS 6 Xposition Yposition Zposition Zrotation Xrotation Yrotation
							JOINT rwrist
							{
								OFFSET 0 -19.2342 0
								CHANNELS 6 Xposition Yposition Zposition Zrotation Xrotation Yrotation
								JOINT rhand
								{
									OFFSET 0 -9.61712 0
									CHANNELS 6 Xposition Yposition Zposition Zrotation Xrotation Yrotation
									JOINT rfingers
									{
										OFFSET 0 -3.29215 0
										CHANNELS 6 Xposition Yposition Zposition Zrotation Xrotation Yrotation
										End Site
										{
											OFFSET 0 -2.557 0
										}
									}
								}
								JOINT rthumb
								{
									OFFSET 0 -9.61712 0
									CHANNELS 6 Xposition Yposition Zposition Zrotation Xrotation Yrotation
									End Site
									{
										OFFSET 0 -3.671 0
									}
								}
							}
						}
					}
				}
			}
		}
	}
	JOINT rfemur
	{
		OFFSET -8.46272 -9.62775 4.76248
		CHANNELS 6 Xposition Yposition Zposition Zrotation Xrotation Yrotation
		JOINT rtibia
		{
			OFFSET 1.00552e-005 -38.0331 0
			CHANNELS 6 Xposition Yposition Zposition Zrotation Xrotation Yrotation
			JOINT rfoot
			{
				OFFSET 1.14428e-005 -43.2815 0
				CHANNELS 6 Xposition Yposition Zposition Zrotation Xrotation Yrotation
				JOINT rtoes
				{
					OFFSET 0 -14.1868 -3.08763
					CHANNELS 6 Xposition Yposition Zposition Zrotation Xrotation Yrotation
					End Site
					{
						OFFSET 0 -7.27332 0
					}
				}
			}
		}
	}
	JOINT lfemur
	{
		OFFSET 9.10607 -9.62778 4.76249
		CHANNELS 6 Xposition Yposition Zposition Zrotation Xrotation Yrotation
		JOINT ltibia
		{
			OFFSET -1.01399e-005 -38.3535 0
			CHANNELS 6 Xposition Yposition Zposition Zrotation Xrotation Yrotation
			JOINT lfoot
			{
				OFFSET -1.12937e-005 -42.7176 0
				CHANNELS 6 Xposition Yposition Zposition Zrotation Xrotation Yrotation
				JOINT ltoes
				{
					OFFSET 0 -13.9965 -2.83857
					CHANNELS 6 Xposition Yposition Zposition Zrotation Xrotation Yrotation
					End Site
					{
						OFFSET 0 -7.16348 0
					}
				}
			}
		}
	}
}
MOTION
Frames: 9
Frame Time: 0.00833333
-0.247609	80.2527	252.479	0.497898	6.11441	-13.0762	0 0 0 8.47184	35.3509	-4.90068	-0.214371 12.3768 -1.12219 -1.25166	19.5421	-4.94162	-0.00137213 12.3873 0.296195 -4.56692	3.20587	-2.15319	0.0883157 12.5016 0.82912 3.04096	2.03999	2.958	-1 10.1794 0.943522 -0.804501	-20.0902	4.06857	0.667525 10.2797 -1.57149 -1.25645	-6.32139	1.72263	0.0883157 12.5016 0.82912 -15	0	-0	20.61 4.45006 1.43784 76.3969	-65.9252	-157.268	0 -30.3438 0 -0	81.7327	-0	0 -18.964 0 9.75319e-016	3.43596e-015	-64.323	0 -9.48199 0 1.22245	4.37968	-2.58917e-014	0 -3.17138 0 -0	7.12502	-0	0 -9.48199 0 25	15	-1.36605e-015	0.0883157 12.5016 0.82912 15	0	-0	-20.61 4.45 1.44 -27.6963	-14.6441	-155.846	0 -29.5102 0 180	77.4313	-180	0 -19.2342 0 1.40887e-015	-4.21738e-015	126.945	0 -9.61712 0 1.22	4.38	-0	0 -3.29215 0 -0	7.12502	-0	0 -9.61712 0 25	15	-7.97034e-015	-8.46272 -9.62775 4.76248 9.95269	-42.5611	2.80398	1.00552e-005 -38.0331 0 -0	88.8295	-0	1.14428e-005 -43.2815 0 -127.52	-70.6509	-125.923	0 -14.1868 -3.08763 -0	-47.1199	-0	9.10607 -9.62778 4.76249 11.4976	-59.9769	16.4376	-1.01399e-005 -38.3535 0 -0	19.716	-0	-1.12937e-005 -42.7176 0 35.8249	-75.2029	36.7468	0 -13.9965 -2.83857 -0	-20.7665	-0
-0.259057	80.6631	253.369	0.328187	6.27438	-13.187	0 0 0 8.48271	34.4915	-4.81619	-0.214371 12.3768 -1.12219 -1.20832	19.4127	-4.89495	-0.00137213 12.3873 0.296195 -4.60864	3.35384	-2.1215	0.0883157 12.5016 0.82912 3.054	2.19059	3.00941	-1 10.1794 0.943522 -0.846664	-19.6134	4.14131	0.667525 10.2797 -1.57149 -1.26762	-6.18531	1.77405	0.0883157 12.5016 0.82912 -15	0	-0	20.61 4.45006 1.43784 71.9536	-65.8187	-161.689	0 -30.3438 0 -0	81.9858	-0	0 -18.964 0 1.00243e-015	3.379e-015	-64.7788	0 -9.48199 0 1.22245	4.37968	-2.58917e-014	0 -3.17138 0 -0	7.12502	-0	0 -9.48199 0 25	15	-1.36605e-015	0.0883157 12.5016 0.82912 15	0	-0	-20.61 4.45 1.44 -27.5673	-13.4466	-155.769	0 -29.5102 0 180	78.3349	-180	0 -19.2342 0 1.43577e-015	-4.25292e-015	127.309	0 -9.61712 0 1.22	4.38	-0	0 -3.29215 0 -0	7.12502	-0	0 -9.61712 0 25	15	-7.97034e-015	-8.46272 -9.62775 4.76248 9.55148	-41.6356	2.29459	1.00552e-005 -38.0331 0 -0	88.0312	-0	1.14428e-005 -43.2815 0 -128.175	-71.2479	-126.667	0 -14.1868 -3.08763 -0	-47.6564	-0	9.10607 -9.62778 4.76249 11.1367	-58.7884	15.6104	-1.01399e-005 -38.3535 0 -0	18.3722	-0	-1.12937e-005 -42.7176 0 36.9334	-74.6267	37.9411	0 -13.9965 -2.83857 -0	-20.4448	-0
-0.271019	81.0791	254.277	0.147248	6.45819	-13.3041	0 0 0 8.49058	33.6205	-4.72564	-0.214371 12.3768 -1.12219 -1.16006	19.2692	-4.8418	-0.00137213 12.3873 0.296195 -4.64934	3.50398	-2.08657	0.0883157 12.5016 0.82912 3.0642	2.34939	3.06375	-1 10.1794 0.943522 -0.878162	-19.1413	4.21996	0.667525 10.2797 -1.57149 -1.27552	-6.0527	1.82743	0.0883157 12.5016 0.82912 -15	0	-0	20.61 4.45006 1.43784 67.4907	-65.5656	-166.146	0 -30.3438 0 -0	82.2347	-0	0 -18.964 0 1.03084e-015	3.31801e-015	-65.2649	0 -9.48199 0 1.22245	4.37968	-2.58917e-014	0 -3.17138 0 -0	7.12502	-0	0 -9.48199 0 25	15	-1.36605e-015	0.0883157 12.5016 0.82912 15	0	-0	-20.61 4.45 1.44 -27.4471	-12.2366	-155.715	0 -29.5102 0 180	79.2907	-180	0 -19.2342 0 1.46343e-015	-4.28897e-015	127.68	0 -9.61712 0 1.22	4.38	-0	0 -3.29215 0 -0	7.12502	-0	0 -9.61712 0 25	15	-7.97034e-015	-8.46272 -9.62775 4.76248 9.17807	-40.6984	1.79601	1.00552e-005 -38.0331 0 -0	87.1806	-0	1.14428e-005 -43.2815 0 -128.906	-71.8531	-127.485	0 -14.1868 -3.08763 -0	-48.1386	-0	9.10607 -9.62778 4.76249 10.8713	-57.6521	14.8692	-1.01399e-005 -38.3535 0 -0	17.1541	-0	-1.12937e-005 -42.7176 0 37.9834	-74.0309	39.0823	0 -13.9965 -2.83857 -0	-20.0991	-0
-0.283227	81.5024	255.203	-0.0432956	6.66817	-13.4283	0 0 0 8.49707	32.7391	-4.62988	-0.214371 12.3768 -1.12219 -1.10816	19.1115	-4.78277	-0.00137213 12.3873 0.296195 -4.69108	3.65706	-2.04846	0.0883157 12.5016 0.82912 3.07265	2.511	3.1208	-1 10.1794 0.943522 -0.899781	-18.6716	4.30382	0.667525 10.2797 -1.57149 -1.28063	-5.92285	1.88242	0.0883157 12.5016 0.82912 -15	0	-0	20.61 4.45006 1.43784 63.0876	-65.1625	-170.567	0 -30.3438 0 -0	82.4765	-0	0 -18.964 0 1.06026e-015	3.25338e-015	-65.778	0 -9.48199 0 1.22245	4.37968	-2.58917e-014	0 -3.17138 0 -0	7.12502	-0	0 -9.48199 0 25	15	-1.36605e-015	0.0883157 12.5016 0.82912 15	0	-0	-20.61 4.45 1.44 -27.3327	-11.0181	-155.685	0 -29.5102 0 180	80.2983	-180	0 -19.2342 0 1.49139e-015	-4.32493e-015	128.052	0 -9.61712 0 1.22	4.38	-0	0 -3.29215 0 -0	7.12502	-0	0 -9.61712 0 25	15	-7.97034e-015	-8.46272 -9.62775 4.76248 8.83381	-39.7532	1.31244	1.00552e-005 -38.0331 0 -0	86.2791	-0	1.14428e-005 -43.2815 0 -129.719	-72.4668	-128.385	0 -14.1868 -3.08763 -0	-48.5682	-0	9.10607 -9.62778 4.76249 10.6862	-56.5707	14.2096	-1.01399e-005 -38.3535 0 -0	16.0562	-0	-1.12937e-005 -42.7176 0 38.9372	-73.4232	40.1313	0 -13.9965 -2.83857 -0	-19.7328	-0
-0.295591	81.9308	256.146	-0.241461	6.90626	-13.5607	0 0 0 8.5041	31.8487	-4.53005	-0.214371 12.3768 -1.12219 -1.05414	18.9397	-4.71879	-0.00137213 12.3873 0.296195 -4.73587	3.81334	-2.00737	0.0883157 12.5016 0.82912 3.08047	2.67011	3.18034	-1 10.1794 0.943522 -0.91313	-18.2006	4.3921	0.667525 10.2797 -1.57149 -1.28373	-5.795	1.93871	0.0883157 12.5016 0.82912 -15	0	-0	20.61 4.45006 1.43784 58.816	-64.6114	-174.881	0 -30.3438 0 -0	82.7083	-0	0 -18.964 0 1.09042e-015	3.18549e-015	-66.3148	0 -9.48199 0 1.22245	4.37968	-2.58917e-014	0 -3.17138 0 -0	7.12502	-0	0 -9.48199 0 25	15	-1.36605e-015	0.0883157 12.5016 0.82912 15	0	-0	-20.61 4.45 1.44 -27.2216	-9.79509	-155.681	0 -29.5102 0 180	81.3568	-180	0 -19.2342 0 1.51936e-015	-4.36043e-015	128.421	0 -9.61712 0 1.22	4.38	-0	0 -3.29215 0 -0	7.12502	-0	0 -9.61712 0 25	15	-7.97034e-015	-8.46272 -9.62775 4.76248 8.51914	-38.804	0.848546	1.00552e-005 -38.0331 0 -0	85.3286	-0	1.14428e-005 -43.2815 0 -130.623	-73.09	-129.376	0 -14.1868 -3.08763 -0	-48.9484	-0	9.10607 -9.62778 4.76249 10.5665	-55.546	13.6247	-1.01399e-005 -38.3535 0 -0	15.0732	-0	-1.12937e-005 -42.7176 0 39.7635	-72.8121	41.0556	0 -13.9965 -2.83857 -0	-19.3524	-0
-0.306729	82.3637	257.106	-0.444903	7.17367	-13.7026	0 0 0 8.51369	30.9512	-4.42761	-0.214371 12.3768 -1.12219 -0.999722	18.7542	-4.65099	-0.00137213 12.3873 0.296195 -4.78546	3.97235	-1.96367	0.0883157 12.5016 0.82912 3.0886	2.82181	3.24222	-1 10.1794 0.943522 -0.920453	-17.7248	4.484	0.667525 10.2797 -1.57149 -1.28582	-5.66852	1.99601	0.0883157 12.5016 0.82912 -15	0	-0	20.61 4.45006 1.43784 54.7351	-63.9188	-179.033	0 -30.3438 0 -0	82.9278	-0	0 -18.964 0 1.12101e-015	3.11482e-015	-66.8712	0 -9.48199 0 1.22245	4.37968	-2.58917e-014	0 -3.17138 0 -0	7.12502	-0	0 -9.48199 0 25	15	-1.36605e-015	0.0883157 12.5016 0.82912 15	0	-0	-20.61 4.45 1.44 -27.1119	-8.57178	-155.701	0 -29.5102 0 180	82.4651	-180	0 -19.2342 0 1.54686e-015	-4.39488e-015	128.781	0 -9.61712 0 1.22	4.38	-0	0 -3.29215 0 -0	7.12502	-0	0 -9.61712 0 25	15	-7.97034e-015	-8.46272 -9.62775 4.76248 8.23364	-37.8544	0.409432	1.00552e-005 -38.0331 0 -0	84.3316	-0	1.14428e-005 -43.2815 0 -131.629	-73.7244	-130.468	0 -14.1868 -3.08763 -0	-49.2842	-0	9.10607 -9.62778 4.76249 10.499	-54.5792	13.1051	-1.01399e-005 -38.3535 0 -0	14.1999	-0	-1.12937e-005 -42.7176 0 40.4387	-72.2068	41.8301	0 -13.9965 -2.83857 -0	-18.9669	-0
-0.316625	82.7955	258.082	-0.650914	7.47058	-13.8553	0 0 0 8.52768	30.0492	-4.32426	-0.214371 12.3768 -1.12219 -0.946778	18.5555	-4.58079	-0.00137213 12.3873 0.296195 -4.84106	4.13287	-1.91793	0.0883157 12.5016 0.82912 3.09761	2.96191	3.30635	-1 10.1794 0.943522 -0.924381	-17.2404	4.57881	0.667525 10.2797 -1.57149 -1.28802	-5.54299	2.05413	0.0883157 12.5016 0.82912 -15	0	-0	20.61 4.45006 1.43784 50.8888	-63.0946	177.023	0 -30.3438 0 -0	83.1327	-0	0 -18.964 0 1.15176e-015	3.04184e-015	-67.4434	0 -9.48199 0 1.22245	4.37968	-2.58917e-014	0 -3.17138 0 -0	7.12502	-0	0 -9.48199 0 25	15	-1.36605e-015	0.0883157 12.5016 0.82912 15	0	-0	-20.61 4.45 1.44 -27.0028	-7.35273	-155.746	0 -29.5102 0 180	83.6214	-180	0 -19.2342 0 1.57366e-015	-4.42802e-015	129.129	0 -9.61712 0 1.22	4.38	-0	0 -3.29215 0 -0	7.12502	-0	0 -9.61712 0 25	15	-7.97034e-015	-8.46272 -9.62775 4.76248 7.97592	-36.9072	0.000527538	1.00552e-005 -38.0331 0 -0	83.2906	-0	1.14428e-005 -43.2815 0 -132.744	-74.3723	-131.67	0 -14.1868 -3.08763 -0	-49.5814	-0	9.10607 -9.62778 4.76249 10.472	-53.6708	12.6398	-1.01399e-005 -38.3535 0 -0	13.4315	-0	-1.12937e-005 -42.7176 0 40.9472	-71.617	42.4377	0 -13.9965 -2.83857 -0	-18.5884	-0
-0.323499	83.2251	259.074	-0.856415	7.796	-14.0199	0 0 0 8.54741	29.1462	-4.22185	-0.214371 12.3768 -1.12219 -0.897249	18.3448	-4.50973	-0.00137213 12.3873 0.296195 -4.90327	4.29289	-1.87088	0.0883157 12.5016 0.82912 3.10761	3.08709	3.37272	-1 10.1794 0.943522 -0.927644	-16.7448	4.67595	0.667525 10.2797 -1.57149 -1.29137	-5.41828	2.11297	0.0883157 12.5016 0.82912 -15	0	-0	20.61 4.45006 1.43784 47.3046	-62.1514	173.316	0 -30.3438 0 -0	83.3217	-0	0 -18.964 0 1.18235e-015	2.9671e-015	-68.0269	0 -9.48199 0 1.22245	4.37968	-2.58917e-014	0 -3.17138 0 -0	7.12502	-0	0 -9.48199 0 25	15	-1.36605e-015	0.0883157 12.5016 0.82912 15	0	-0	-20.61 4.45 1.44 -26.8942	-6.14281	-155.813	0 -29.5102 0 180	84.8237	-180	0 -19.2342 0 1.59933e-015	-4.45939e-015	129.46	0 -9.61712 0 1.22	4.38	-0	0 -3.29215 0 -0	7.12502	-0	0 -9.61712 0 25	15	-7.97034e-015	-8.46272 -9.62775 4.76248 7.74376	-35.9647	-0.372528	1.00552e-005 -38.0331 0 -0	82.2087	-0	1.14428e-005 -43.2815 0 -133.982	-75.0354	-132.994	0 -14.1868 -3.08763 -0	-49.847	-0	9.10607 -9.62778 4.76249 10.4761	-52.8208	12.218	-1.01399e-005 -38.3535 0 -0	12.7641	-0	-1.12937e-005 -42.7176 0 41.2814	-71.0516	42.869	0 -13.9965 -2.83857 -0	-18.2309	-0
-0.328834	83.6518	260.081	-1.05796	8.14769	-14.1975	0 0 0 8.57344	28.2468	-4.12223	-0.214371 12.3768 -1.12219 -0.85305	18.1236	-4.43949	-0.00137213 12.3873 0.296195 -4.97197	4.44976	-1.82345	0.0883157 12.5016 0.82912 3.11834	3.19503	3.44136	-1 10.1794 0.943522 -0.932773	-16.2367	4.77493	0.667525 10.2797 -1.57149 -1.29675	-5.29448	2.17246	0.0883157 12.5016 0.82912 -15	0	-0	20.61 4.45006 1.43784 43.9961	-61.1035	169.863	0 -30.3438 0 -0	83.4938	-0	0 -18.964 0 1.21255e-015	2.89113e-015	-68.6176	0 -9.48199 0 1.22245	4.37968	-2.58917e-014	0 -3.17138 0 -0	7.12502	-0	0 -9.48199 0 25	15	-1.36605e-015	0.0883157 12.5016 0.82912 15	0	-0	-20.61 4.45 1.44 -26.7865	-4.94715	-155.902	0 -29.5102 0 180	86.069	-180	0 -19.2342 0 1.62385e-015	-4.48902e-015	129.774	0 -9.61712 0 1.22	4.38	-0	0 -3.29215 0 -0	7.12502	-0	0 -9.61712 0 25	15	-7.97034e-015	-8.46272 -9.62775 4.76248 7.53422	-35.028	-0.704051	1.00552e-005 -38.0331 0 -0	81.0884	-0	1.14428e-005 -43.2815 0 -135.349	-75.7148	-134.449	0 -14.1868 -3.08763 -0	-50.0879	-0	9.10607 -9.62778 4.76249 10.504	-52.0293	11.8302	-1.01399e-005 -38.3535 0 -0	12.1947	-0	-1.12937e-005 -42.7176 0 41.44	-70.5188	43.1211	0 -13.9965 -2.83857 -0	-17.9085	-0
